<svg width="70" height="50" viewBox="0 0 88 33" fill="none" xmlns="http://www.w3.org/2000/svg">
<g filter="url(#filter0_d_12_14)">
<path d="M11.8679 15.2065L11.2353 14.4321L11.2353 14.4321L11.8679 15.2065ZM72.6095 13.2759L73.1917 12.4629L73.1917 12.4629L72.6095 13.2759ZM82.1632 20.9866C82.7081 20.8964 83.0767 20.3816 82.9866 19.8368L81.5174 10.9575C81.4272 10.4126 80.9124 10.044 80.3675 10.1341C79.8226 10.2243 79.454 10.7391 79.5442 11.284L80.8502 19.1767L72.9575 20.4826C72.4126 20.5728 72.044 21.0876 72.1341 21.6325C72.2243 22.1774 72.7391 22.546 73.284 22.4558L82.1632 20.9866ZM8.09962 19.5761C8.52733 19.2267 8.59082 18.5967 8.24142 18.169C7.89202 17.7413 7.26205 17.6778 6.83433 18.0272L8.09962 19.5761ZM9.76829 15.6304C9.34058 15.9798 9.27709 16.6098 9.62649 17.0375C9.97589 17.4652 10.6059 17.5287 11.0336 17.1793L9.76829 15.6304ZM15.045 14.0364C15.4944 13.7155 15.5987 13.091 15.2777 12.6415C14.9568 12.192 14.3323 12.0878 13.8828 12.4087L15.045 14.0364ZM19.5419 8.90205C19.0544 9.16163 18.8697 9.76724 19.1293 10.2547C19.3889 10.7422 19.9945 10.9269 20.482 10.6674L19.5419 8.90205ZM26.3121 8.03754C26.8293 7.84392 27.0916 7.26766 26.898 6.75042C26.7044 6.23319 26.1281 5.97086 25.6109 6.16449L26.3121 8.03754ZM31.9858 4.24307C31.4477 4.36755 31.1124 4.90466 31.2369 5.44273C31.3614 5.98081 31.8985 6.31608 32.4366 6.1916L31.9858 4.24307ZM38.7498 5.15914C39.2995 5.1057 39.7018 4.61677 39.6484 4.06707C39.595 3.51738 39.106 3.11508 38.5563 3.16852L38.7498 5.15914ZM45.2105 2.95703C44.6585 2.93861 44.1961 3.37114 44.1777 3.92312C44.1592 4.47509 44.5918 4.93749 45.1438 4.95592L45.2105 2.95703ZM51.5099 5.58538C52.0547 5.67545 52.5695 5.30674 52.6595 4.76185C52.7496 4.21696 52.3809 3.70222 51.836 3.61216L51.5099 5.58538ZM58.3201 5.12488C57.7916 4.96449 57.2331 5.26288 57.0727 5.79137C56.9124 6.31985 57.2108 6.87829 57.7392 7.03868L58.3201 5.12488ZM63.7246 9.29297C64.2275 9.52107 64.8202 9.29823 65.0483 8.79525C65.2764 8.29227 65.0536 7.69962 64.5506 7.47152L63.7246 9.29297ZM70.421 10.6118C69.952 10.32 69.3354 10.4637 69.0436 10.9326C68.7519 11.4016 68.8956 12.0182 69.3645 12.31L70.421 10.6118ZM74.3749 15.77C74.824 16.0915 75.4486 15.9882 75.7702 15.5391C76.0917 15.0901 75.9883 14.4654 75.5393 14.1439L74.3749 15.77ZM80.2346 17.5059C79.7855 17.1844 79.1608 17.2878 78.8393 17.7368C78.5178 18.1858 78.6211 18.8105 79.0702 19.132L80.2346 17.5059ZM6.63264 20.7744L8.09962 19.5761L6.83433 18.0272L5.36736 19.2256L6.63264 20.7744ZM11.0336 17.1793L12.5006 15.9809L11.2353 14.4321L9.76829 15.6304L11.0336 17.1793ZM12.5006 15.9809C13.3322 15.3016 14.1808 14.6534 15.045 14.0364L13.8828 12.4087C12.9835 13.0508 12.1005 13.7253 11.2353 14.4321L12.5006 15.9809ZM20.482 10.6674C22.3775 9.65801 24.3254 8.78126 26.3121 8.03754L25.6109 6.16449C23.5428 6.93866 21.5151 7.85134 19.5419 8.90205L20.482 10.6674ZM32.4366 6.1916C34.5199 5.70961 36.6291 5.3653 38.7498 5.15914L38.5563 3.16852C36.3492 3.38308 34.1541 3.74141 31.9858 4.24307L32.4366 6.1916ZM45.1438 4.95592C47.2733 5.02699 49.4001 5.23667 51.5099 5.58538L51.836 3.61216C49.6402 3.24921 47.4267 3.031 45.2105 2.95703L45.1438 4.95592ZM57.7392 7.03868C59.7691 7.65474 61.7688 8.40602 63.7246 9.29297L64.5506 7.47152C62.5147 6.54823 60.4331 5.76616 58.3201 5.12488L57.7392 7.03868ZM69.3645 12.31C70.2661 12.8708 71.1542 13.4638 72.0273 14.089L73.1917 12.4629C72.2833 11.8124 71.3592 11.1954 70.421 10.6118L69.3645 12.31ZM72.0273 14.089L74.3749 15.77L75.5393 14.1439L73.1917 12.4629L72.0273 14.089ZM79.0702 19.132L81.4178 20.8131L82.5822 19.1869L80.2346 17.5059L79.0702 19.132ZM11.8679 15.2065L10.6026 13.6576L10.6026 13.6576L11.8679 15.2065ZM72.6095 13.2759L73.7738 11.6498L73.7738 11.6498L72.6095 13.2759ZM82.3265 21.9732C83.4162 21.7929 84.1535 20.7633 83.9732 19.6735L81.0347 1.91497C80.8544 0.825221 79.8248 0.0879797 78.735 0.268298C77.6453 0.448617 76.9081 1.47821 77.0884 2.56796L79.7003 18.3533L63.915 20.9653C62.8252 21.1456 62.088 22.1752 62.2683 23.265C62.4486 24.3547 63.4782 25.0919 64.568 24.9116L82.3265 21.9732ZM8.73227 20.3505C9.58769 19.6517 9.71466 18.3918 9.01586 17.5363C8.31707 16.6809 7.05712 16.5539 6.20169 17.2527L8.73227 20.3505ZM9.13565 14.856C8.28022 15.5548 8.15325 16.8147 8.85205 17.6702C9.55085 18.5256 10.8108 18.6526 11.6662 17.9538L9.13565 14.856ZM15.626 14.8503C16.525 14.2085 16.7334 12.9594 16.0916 12.0604C15.4498 11.1615 14.2007 10.953 13.3018 11.5949L15.626 14.8503ZM19.0719 8.01939C18.097 8.53855 17.7275 9.74977 18.2466 10.7247C18.7658 11.6997 19.977 12.0692 20.952 11.55L19.0719 8.01939ZM26.6626 8.97407C27.6971 8.58682 28.2218 7.4343 27.8345 6.39983C27.4473 5.36537 26.2947 4.84071 25.2603 5.22796L26.6626 8.97407ZM31.7604 3.2688C30.6842 3.51777 30.0137 4.59199 30.2626 5.66814C30.5116 6.74428 31.5858 7.41484 32.662 7.16586L31.7604 3.2688ZM38.8466 6.15444C39.946 6.04757 40.7506 5.0697 40.6437 3.97032C40.5368 2.87093 39.559 2.06634 38.4596 2.17321L38.8466 6.15444ZM45.2438 1.95758C44.1399 1.92074 43.2151 2.7858 43.1782 3.88976C43.1414 4.99371 44.0064 5.91851 45.1104 5.95536L45.2438 1.95758ZM51.3468 6.572C52.4366 6.75213 53.466 6.01471 53.6462 4.92493C53.8263 3.83515 53.0889 2.80568 51.9991 2.62554L51.3468 6.572ZM58.6105 4.16797C57.5535 3.84719 56.4366 4.44399 56.1158 5.50096C55.7951 6.55792 56.3919 7.6748 57.4488 7.99558L58.6105 4.16797ZM63.3116 10.2037C64.3175 10.6599 65.5028 10.2142 65.959 9.20827C66.4152 8.20231 65.9696 7.01699 64.9636 6.56079L63.3116 10.2037ZM70.9492 9.76264C70.0113 9.17919 68.778 9.46653 68.1945 10.4044C67.6111 11.3423 67.8984 12.5756 68.8363 13.1591L70.9492 9.76264ZM73.7927 16.583C74.6908 17.2261 75.9401 17.0194 76.5832 16.1213C77.2263 15.2232 77.0195 13.9739 76.1215 13.3308L73.7927 16.583ZM80.8167 16.6929C79.9187 16.0498 78.6693 16.2565 78.0263 17.1546C77.3832 18.0527 77.5899 19.302 78.488 19.9451L80.8167 16.6929ZM7.26529 21.5489L8.73227 20.3505L6.20169 17.2527L4.73471 18.4511L7.26529 21.5489ZM11.6662 17.9538L13.1332 16.7554L10.6026 13.6576L9.13565 14.856L11.6662 17.9538ZM13.1332 16.7554C13.948 16.0897 14.7795 15.4547 15.626 14.8503L13.3018 11.5949C12.3849 12.2495 11.4846 12.9371 10.6026 13.6576L13.1332 16.7554ZM20.952 11.55C22.8086 10.5613 24.7166 9.70256 26.6626 8.97407L25.2603 5.22796C23.1515 6.01736 21.0839 6.948 19.0719 8.01939L20.952 11.55ZM32.662 7.16586C34.7028 6.69371 36.769 6.35641 38.8466 6.15444L38.4596 2.17321C36.2093 2.39196 33.9712 2.75731 31.7604 3.2688L32.662 7.16586ZM45.1104 5.95536C47.1967 6.02499 49.2801 6.23039 51.3468 6.572L51.9991 2.62554C49.7602 2.25548 47.5034 2.033 45.2438 1.95758L45.1104 5.95536ZM57.4488 7.99558C59.4372 8.59902 61.3958 9.33491 63.3116 10.2037L64.9636 6.56079C62.8876 5.61933 60.7651 4.82188 58.6105 4.16797L57.4488 7.99558ZM68.8363 13.1591C69.7195 13.7085 70.5896 14.2895 71.4451 14.902L73.7738 11.6498C72.8479 10.9868 71.9057 10.3577 70.9492 9.76264L68.8363 13.1591ZM71.4451 14.902L73.7927 16.583L76.1215 13.3308L73.7738 11.6498L71.4451 14.902ZM78.488 19.9451L80.8356 21.6261L83.1644 18.3739L80.8167 16.6929L78.488 19.9451Z" fill="#EB7634"/>
</g>
<defs>
<filter id="filter0_d_12_14" x="0.734711" y="0.241165" width="87.2656" height="32.6976" filterUnits="userSpaceOnUse" color-interpolation-filters="sRGB">
<feFlood flood-opacity="0" result="BackgroundImageFix"/>
<feColorMatrix in="SourceAlpha" type="matrix" values="0 0 0 0 0 0 0 0 0 0 0 0 0 0 0 0 0 0 127 0" result="hardAlpha"/>
<feOffset dy="4"/>
<feGaussianBlur stdDeviation="2"/>
<feComposite in2="hardAlpha" operator="out"/>
<feColorMatrix type="matrix" values="0 0 0 0 0.992157 0 0 0 0 0.741176 0 0 0 0 0 0 0 0 0.5 0"/>
<feBlend mode="normal" in2="BackgroundImageFix" result="effect1_dropShadow_12_14"/>
<feBlend mode="normal" in="SourceGraphic" in2="effect1_dropShadow_12_14" result="shape"/>
</filter>
</defs>
</svg>
